{"title":"Contraband.2012.DVDSCR.READNFO.AC3.XviD-INSPiRAL","uid":7164583,"size":1501345761,"categoryP":"video","categoryS":"movies","magnet":"?xt=urn:btih:01e0dc48f7a537653b9806674f934cf1b8fe1c8f&amp;dn=Contraband.2012.DVDSCR.READNFO.AC3.XviD-INSPiRAL&amp;tr=udp%3A%2F%2Ftracker.openbittorrent.com%3A80&amp;tr=udp%3A%2F%2Fopen.demonii.com%3A1337&amp;tr=udp%3A%2F%2Ftracker.coppersurfer.tk%3A6969&amp;tr=udp%3A%2F%2Fexodus.desync.com%3A6969","seeders":0,"leechers":0,"uploader":"maximersk","files":4,"time":1333729605,"description":"Contraband.2012.DVDSCR.READNFO.AC3.XviD-INSPiRAL\n\n\n\n\n\n\n\n\nIMDB:\n &lt;a href=&quot;\nhttp://www.imdb.com/title/tt1524137/&quot; rel=&quot;nofollow&quot; target=&quot;_NEW&quot;&gt;\nhttp://www.imdb.com/title/tt1524137/&lt;/a&gt;\n\n\nSOURCES:\n\nVIDEO - LEGEND VOBS THANKS\nAUDIO - LEGEND VOBS THANKS\nSUBS - ENG WHEN NEEDED\n\nSTATS:\n\nVideo\nID : 0\nFormat : MPEG-4 Visual\nFormat profile : Advanced Simple@L5\nFormat settings, BVOP : 2\nFormat settings, QPel : No\nFormat settings, GMC : No warppoints\nFormat settings, Matrix : Default (MPEG)\nMuxing mode : Packed bitstream\nCodec ID : XVID\nCodec ID/Hint : XviD\nDuration : 1h 49mn\nBit rate : 1 343 Kbps\nWidth : 720 pixels\nHeight : 304 pixels\nDisplay aspect ratio : 2.35:1\nFrame rate : 23.976 fps\nColor space : YUV\nChroma subsampling : 4:2:0\nBit depth : 8 bits\nScan type : Progressive\nCompression mode : Lossy\nBits/(Pixel*Frame) : 0.256\nStream size : 1.03 GiB (75%)\nWriting library : XviD 64\n\nAudio\nID : 1\nFormat : AC-3\nFormat/Info : Audio Coding 3\nMode extension : CM (complete main)\nCodec ID : 2000\nDuration : 1h 49mn\nBit rate mode : Constant\nBit rate : 448 Kbps\nChannel(s) : 2 channels\nChannel positions : Front: L R\nSampling rate : 48.0 KHz\nBit depth : 16 bits\nCompression mode : Lossy\nStream size : 351 MiB (25%)\nAlignment : Aligned on interleaves\nInterleave, duration : 42 ms (1.00 video frame)\nInterleave, preload duration : 512 ms","torrent":{"xt":"urn:btih:01e0dc48f7a537653b9806674f934cf1b8fe1c8f","amp;dn":"Contraband.2012.DVDSCR.READNFO.AC3.XviD-INSPiRAL","amp;tr":["udp%3A%2F%2Ftracker.openbittorrent.com%3A80","udp%3A%2F%2Fopen.demonii.com%3A1337","udp%3A%2F%2Ftracker.coppersurfer.tk%3A6969","udp%3A%2F%2Fexodus.desync.com%3A6969"],"infoHash":"01e0dc48f7a537653b9806674f934cf1b8fe1c8f","infoHashBuffer":{"type":"Buffer","data":[1,224,220,72,247,165,55,101,59,152,6,103,79,147,76,241,184,254,28,143]},"announce":[],"urlList":[]}}